<mxfile host="Electron" modified="2023-06-08T08:20:23.385Z" agent="5.0 (Windows NT 10.0; Win64; x64) AppleWebKit/537.36 (KHTML, like Gecko) draw.io/20.3.0 Chrome/104.0.5112.114 Electron/20.1.3 Safari/537.36" etag="50WJQGx9-xWFjsIpGhcy" compressed="false" version="20.3.0" type="device">
  <diagram name="PT002A" id="1CP9VX86ncTdAmcYDIcw">
    <mxGraphModel dx="948" dy="571" grid="1" gridSize="2" guides="1" tooltips="1" connect="1" arrows="1" fold="1" page="1" pageScale="1" pageWidth="827" pageHeight="1169" math="0" shadow="0">
      <root>
        <mxCell id="22vkG-h5v2N9dKBLQ-ZE-0" />
        <mxCell id="22vkG-h5v2N9dKBLQ-ZE-1" value="Grid" style="locked=1;" parent="22vkG-h5v2N9dKBLQ-ZE-0" />
        <mxCell id="22vkG-h5v2N9dKBLQ-ZE-5" style="vsdxID=1364;edgeStyle=none;startArrow=none;endArrow=none;startSize=5;endSize=5;strokeColor=#7F7F7F;spacingTop=0;spacingBottom=0;spacingLeft=0;spacingRight=0;verticalAlign=middle;html=1;labelBackgroundColor=#ffffff;rounded=0;fillOpacity=80;strokeOpacity=20;" parent="22vkG-h5v2N9dKBLQ-ZE-1" edge="1">
          <mxGeometry relative="1" as="geometry">
            <Array as="points" />
            <mxPoint x="816" y="1150" as="sourcePoint" />
            <mxPoint x="816" y="15" as="targetPoint" />
          </mxGeometry>
        </mxCell>
        <mxCell id="22vkG-h5v2N9dKBLQ-ZE-24" style="vsdxID=1362;edgeStyle=none;startArrow=none;endArrow=none;startSize=5;endSize=5;strokeColor=#D8D8D8;spacingTop=0;spacingBottom=0;spacingLeft=0;spacingRight=0;verticalAlign=middle;html=1;labelBackgroundColor=#ffffff;rounded=0;fillOpacity=80;strokeOpacity=20;" parent="22vkG-h5v2N9dKBLQ-ZE-1" edge="1">
          <mxGeometry relative="1" as="geometry">
            <Array as="points" />
            <mxPoint x="592" y="1150" as="sourcePoint" />
            <mxPoint x="592" y="15" as="targetPoint" />
          </mxGeometry>
        </mxCell>
        <mxCell id="22vkG-h5v2N9dKBLQ-ZE-25" style="vsdxID=1363;edgeStyle=none;startArrow=none;endArrow=none;startSize=5;endSize=5;strokeColor=#7F7F7F;spacingTop=0;spacingBottom=0;spacingLeft=0;spacingRight=0;verticalAlign=middle;html=1;labelBackgroundColor=#ffffff;rounded=0;fillOpacity=80;strokeOpacity=20;" parent="22vkG-h5v2N9dKBLQ-ZE-1" edge="1">
          <mxGeometry relative="1" as="geometry">
            <Array as="points" />
            <mxPoint x="576" y="1150" as="sourcePoint" />
            <mxPoint x="576" y="15" as="targetPoint" />
          </mxGeometry>
        </mxCell>
        <mxCell id="22vkG-h5v2N9dKBLQ-ZE-26" style="vsdxID=1364;edgeStyle=none;startArrow=none;endArrow=none;startSize=5;endSize=5;strokeColor=#D8D8D8;spacingTop=0;spacingBottom=0;spacingLeft=0;spacingRight=0;verticalAlign=middle;html=1;labelBackgroundColor=#ffffff;rounded=0;fillOpacity=80;strokeOpacity=20;" parent="22vkG-h5v2N9dKBLQ-ZE-1" edge="1">
          <mxGeometry relative="1" as="geometry">
            <Array as="points" />
            <mxPoint x="560" y="1150" as="sourcePoint" />
            <mxPoint x="560" y="15" as="targetPoint" />
          </mxGeometry>
        </mxCell>
        <mxCell id="22vkG-h5v2N9dKBLQ-ZE-27" style="vsdxID=1365;edgeStyle=none;startArrow=none;endArrow=none;startSize=5;endSize=5;strokeColor=#D8D8D8;spacingTop=0;spacingBottom=0;spacingLeft=0;spacingRight=0;verticalAlign=middle;html=1;labelBackgroundColor=#ffffff;rounded=0;fillOpacity=80;strokeOpacity=20;" parent="22vkG-h5v2N9dKBLQ-ZE-1" edge="1">
          <mxGeometry relative="1" as="geometry">
            <Array as="points" />
            <mxPoint x="544" y="1150" as="sourcePoint" />
            <mxPoint x="544" y="15" as="targetPoint" />
          </mxGeometry>
        </mxCell>
        <mxCell id="22vkG-h5v2N9dKBLQ-ZE-28" style="vsdxID=1366;edgeStyle=none;startArrow=none;endArrow=none;startSize=5;endSize=5;strokeColor=#D8D8D8;spacingTop=0;spacingBottom=0;spacingLeft=0;spacingRight=0;verticalAlign=middle;html=1;labelBackgroundColor=#ffffff;rounded=0;fillOpacity=80;strokeOpacity=20;" parent="22vkG-h5v2N9dKBLQ-ZE-1" edge="1">
          <mxGeometry relative="1" as="geometry">
            <Array as="points" />
            <mxPoint x="512" y="1150" as="sourcePoint" />
            <mxPoint x="512" y="15" as="targetPoint" />
          </mxGeometry>
        </mxCell>
        <mxCell id="22vkG-h5v2N9dKBLQ-ZE-29" style="vsdxID=1367;edgeStyle=none;startArrow=none;endArrow=none;startSize=5;endSize=5;strokeColor=#7F7F7F;spacingTop=0;spacingBottom=0;spacingLeft=0;spacingRight=0;verticalAlign=middle;html=1;labelBackgroundColor=#ffffff;rounded=0;fillOpacity=80;strokeOpacity=20;" parent="22vkG-h5v2N9dKBLQ-ZE-1" edge="1">
          <mxGeometry relative="1" as="geometry">
            <Array as="points" />
            <mxPoint x="496" y="1150" as="sourcePoint" />
            <mxPoint x="496" y="15" as="targetPoint" />
          </mxGeometry>
        </mxCell>
        <mxCell id="22vkG-h5v2N9dKBLQ-ZE-30" style="vsdxID=1368;edgeStyle=none;startArrow=none;endArrow=none;startSize=5;endSize=5;strokeColor=#D8D8D8;spacingTop=0;spacingBottom=0;spacingLeft=0;spacingRight=0;verticalAlign=middle;html=1;labelBackgroundColor=#ffffff;rounded=0;fillOpacity=80;strokeOpacity=20;" parent="22vkG-h5v2N9dKBLQ-ZE-1" edge="1">
          <mxGeometry relative="1" as="geometry">
            <Array as="points" />
            <mxPoint x="480" y="1150" as="sourcePoint" />
            <mxPoint x="480" y="15" as="targetPoint" />
          </mxGeometry>
        </mxCell>
        <mxCell id="22vkG-h5v2N9dKBLQ-ZE-31" style="vsdxID=1369;edgeStyle=none;startArrow=none;endArrow=none;startSize=5;endSize=5;strokeColor=#D8D8D8;spacingTop=0;spacingBottom=0;spacingLeft=0;spacingRight=0;verticalAlign=middle;html=1;labelBackgroundColor=#ffffff;rounded=0;fillOpacity=80;strokeOpacity=20;" parent="22vkG-h5v2N9dKBLQ-ZE-1" edge="1">
          <mxGeometry relative="1" as="geometry">
            <Array as="points" />
            <mxPoint x="464" y="1150" as="sourcePoint" />
            <mxPoint x="464" y="15" as="targetPoint" />
          </mxGeometry>
        </mxCell>
        <mxCell id="22vkG-h5v2N9dKBLQ-ZE-32" style="vsdxID=1370;edgeStyle=none;startArrow=none;endArrow=none;startSize=5;endSize=5;strokeColor=#D8D8D8;spacingTop=0;spacingBottom=0;spacingLeft=0;spacingRight=0;verticalAlign=middle;html=1;labelBackgroundColor=#ffffff;rounded=0;fillOpacity=80;strokeOpacity=20;" parent="22vkG-h5v2N9dKBLQ-ZE-1" edge="1">
          <mxGeometry relative="1" as="geometry">
            <Array as="points" />
            <mxPoint x="528" y="1150" as="sourcePoint" />
            <mxPoint x="528" y="15" as="targetPoint" />
          </mxGeometry>
        </mxCell>
        <mxCell id="22vkG-h5v2N9dKBLQ-ZE-33" style="vsdxID=1371;edgeStyle=none;startArrow=none;endArrow=none;startSize=5;endSize=5;strokeColor=#D8D8D8;spacingTop=0;spacingBottom=0;spacingLeft=0;spacingRight=0;verticalAlign=middle;html=1;labelBackgroundColor=#ffffff;rounded=0;fillOpacity=80;strokeOpacity=20;" parent="22vkG-h5v2N9dKBLQ-ZE-1" edge="1">
          <mxGeometry relative="1" as="geometry">
            <Array as="points" />
            <mxPoint x="448" y="1150" as="sourcePoint" />
            <mxPoint x="448" y="15" as="targetPoint" />
          </mxGeometry>
        </mxCell>
        <mxCell id="22vkG-h5v2N9dKBLQ-ZE-34" style="vsdxID=1372;edgeStyle=none;startArrow=none;endArrow=none;startSize=5;endSize=5;strokeColor=#D8D8D8;spacingTop=0;spacingBottom=0;spacingLeft=0;spacingRight=0;verticalAlign=middle;html=1;labelBackgroundColor=#ffffff;rounded=0;fillOpacity=80;strokeOpacity=20;" parent="22vkG-h5v2N9dKBLQ-ZE-1" edge="1">
          <mxGeometry relative="1" as="geometry">
            <Array as="points" />
            <mxPoint x="432" y="1150" as="sourcePoint" />
            <mxPoint x="432" y="15" as="targetPoint" />
          </mxGeometry>
        </mxCell>
        <mxCell id="22vkG-h5v2N9dKBLQ-ZE-35" style="vsdxID=1373;edgeStyle=none;startArrow=none;endArrow=none;startSize=5;endSize=5;strokeColor=#7F7F7F;spacingTop=0;spacingBottom=0;spacingLeft=0;spacingRight=0;verticalAlign=middle;html=1;labelBackgroundColor=#ffffff;rounded=0;fillOpacity=80;strokeOpacity=20;" parent="22vkG-h5v2N9dKBLQ-ZE-1" edge="1">
          <mxGeometry relative="1" as="geometry">
            <Array as="points" />
            <mxPoint x="416" y="1150" as="sourcePoint" />
            <mxPoint x="416" y="15" as="targetPoint" />
          </mxGeometry>
        </mxCell>
        <mxCell id="22vkG-h5v2N9dKBLQ-ZE-36" style="vsdxID=1374;edgeStyle=none;startArrow=none;endArrow=none;startSize=5;endSize=5;strokeColor=#D8D8D8;spacingTop=0;spacingBottom=0;spacingLeft=0;spacingRight=0;verticalAlign=middle;html=1;labelBackgroundColor=#ffffff;rounded=0;fillOpacity=80;strokeOpacity=20;" parent="22vkG-h5v2N9dKBLQ-ZE-1" edge="1">
          <mxGeometry relative="1" as="geometry">
            <Array as="points" />
            <mxPoint x="400" y="1150" as="sourcePoint" />
            <mxPoint x="400" y="15" as="targetPoint" />
          </mxGeometry>
        </mxCell>
        <mxCell id="22vkG-h5v2N9dKBLQ-ZE-37" style="vsdxID=1375;edgeStyle=none;startArrow=none;endArrow=none;startSize=5;endSize=5;strokeColor=#D8D8D8;spacingTop=0;spacingBottom=0;spacingLeft=0;spacingRight=0;verticalAlign=middle;html=1;labelBackgroundColor=#ffffff;rounded=0;fillOpacity=80;strokeOpacity=20;" parent="22vkG-h5v2N9dKBLQ-ZE-1" edge="1">
          <mxGeometry relative="1" as="geometry">
            <Array as="points" />
            <mxPoint x="368" y="1150" as="sourcePoint" />
            <mxPoint x="368" y="15" as="targetPoint" />
          </mxGeometry>
        </mxCell>
        <mxCell id="22vkG-h5v2N9dKBLQ-ZE-38" style="vsdxID=1376;edgeStyle=none;startArrow=none;endArrow=none;startSize=5;endSize=5;strokeColor=#D8D8D8;spacingTop=0;spacingBottom=0;spacingLeft=0;spacingRight=0;verticalAlign=middle;html=1;labelBackgroundColor=#ffffff;rounded=0;fillOpacity=80;strokeOpacity=20;" parent="22vkG-h5v2N9dKBLQ-ZE-1" edge="1">
          <mxGeometry relative="1" as="geometry">
            <Array as="points" />
            <mxPoint x="352" y="1150" as="sourcePoint" />
            <mxPoint x="352" y="15" as="targetPoint" />
          </mxGeometry>
        </mxCell>
        <mxCell id="22vkG-h5v2N9dKBLQ-ZE-39" style="vsdxID=1377;edgeStyle=none;startArrow=none;endArrow=none;startSize=5;endSize=5;strokeColor=#7F7F7F;spacingTop=0;spacingBottom=0;spacingLeft=0;spacingRight=0;verticalAlign=middle;html=1;labelBackgroundColor=#ffffff;rounded=0;fillOpacity=80;strokeOpacity=20;" parent="22vkG-h5v2N9dKBLQ-ZE-1" edge="1">
          <mxGeometry relative="1" as="geometry">
            <Array as="points" />
            <mxPoint x="336" y="1150" as="sourcePoint" />
            <mxPoint x="336" y="15" as="targetPoint" />
          </mxGeometry>
        </mxCell>
        <mxCell id="22vkG-h5v2N9dKBLQ-ZE-40" style="vsdxID=1378;edgeStyle=none;startArrow=none;endArrow=none;startSize=5;endSize=5;strokeColor=#D8D8D8;spacingTop=0;spacingBottom=0;spacingLeft=0;spacingRight=0;verticalAlign=middle;html=1;labelBackgroundColor=#ffffff;rounded=0;fillOpacity=80;strokeOpacity=20;" parent="22vkG-h5v2N9dKBLQ-ZE-1" edge="1">
          <mxGeometry relative="1" as="geometry">
            <Array as="points" />
            <mxPoint x="320" y="1150" as="sourcePoint" />
            <mxPoint x="320" y="15" as="targetPoint" />
          </mxGeometry>
        </mxCell>
        <mxCell id="22vkG-h5v2N9dKBLQ-ZE-41" style="vsdxID=1379;edgeStyle=none;startArrow=none;endArrow=none;startSize=5;endSize=5;strokeColor=#D8D8D8;spacingTop=0;spacingBottom=0;spacingLeft=0;spacingRight=0;verticalAlign=middle;html=1;labelBackgroundColor=#ffffff;rounded=0;fillOpacity=80;strokeOpacity=20;" parent="22vkG-h5v2N9dKBLQ-ZE-1" edge="1">
          <mxGeometry relative="1" as="geometry">
            <Array as="points" />
            <mxPoint x="384" y="1150" as="sourcePoint" />
            <mxPoint x="384" y="15" as="targetPoint" />
          </mxGeometry>
        </mxCell>
        <mxCell id="22vkG-h5v2N9dKBLQ-ZE-42" style="vsdxID=1380;edgeStyle=none;startArrow=none;endArrow=none;startSize=5;endSize=5;strokeColor=#D8D8D8;spacingTop=0;spacingBottom=0;spacingLeft=0;spacingRight=0;verticalAlign=middle;html=1;labelBackgroundColor=#ffffff;rounded=0;fillOpacity=80;strokeOpacity=20;" parent="22vkG-h5v2N9dKBLQ-ZE-1" edge="1">
          <mxGeometry relative="1" as="geometry">
            <Array as="points" />
            <mxPoint x="304" y="1150" as="sourcePoint" />
            <mxPoint x="304" y="15" as="targetPoint" />
          </mxGeometry>
        </mxCell>
        <mxCell id="22vkG-h5v2N9dKBLQ-ZE-43" style="vsdxID=1381;edgeStyle=none;startArrow=none;endArrow=none;startSize=5;endSize=5;strokeColor=#D8D8D8;spacingTop=0;spacingBottom=0;spacingLeft=0;spacingRight=0;verticalAlign=middle;html=1;labelBackgroundColor=#ffffff;rounded=0;fillOpacity=80;strokeOpacity=20;" parent="22vkG-h5v2N9dKBLQ-ZE-1" edge="1">
          <mxGeometry relative="1" as="geometry">
            <Array as="points" />
            <mxPoint x="288" y="1150" as="sourcePoint" />
            <mxPoint x="288" y="15" as="targetPoint" />
          </mxGeometry>
        </mxCell>
        <mxCell id="22vkG-h5v2N9dKBLQ-ZE-44" style="vsdxID=1382;edgeStyle=none;startArrow=none;endArrow=none;startSize=5;endSize=5;strokeColor=#D8D8D8;spacingTop=0;spacingBottom=0;spacingLeft=0;spacingRight=0;verticalAlign=middle;html=1;labelBackgroundColor=#ffffff;rounded=0;fillOpacity=80;strokeOpacity=20;" parent="22vkG-h5v2N9dKBLQ-ZE-1" edge="1">
          <mxGeometry relative="1" as="geometry">
            <Array as="points" />
            <mxPoint x="272" y="1150" as="sourcePoint" />
            <mxPoint x="272" y="15" as="targetPoint" />
          </mxGeometry>
        </mxCell>
        <mxCell id="22vkG-h5v2N9dKBLQ-ZE-45" style="vsdxID=1383;edgeStyle=none;startArrow=none;endArrow=none;startSize=5;endSize=5;strokeColor=#7F7F7F;spacingTop=0;spacingBottom=0;spacingLeft=0;spacingRight=0;verticalAlign=middle;html=1;labelBackgroundColor=#ffffff;rounded=0;fillOpacity=80;strokeOpacity=20;" parent="22vkG-h5v2N9dKBLQ-ZE-1" edge="1">
          <mxGeometry relative="1" as="geometry">
            <Array as="points" />
            <mxPoint x="256" y="1150" as="sourcePoint" />
            <mxPoint x="256" y="15" as="targetPoint" />
          </mxGeometry>
        </mxCell>
        <mxCell id="22vkG-h5v2N9dKBLQ-ZE-46" style="vsdxID=1384;edgeStyle=none;startArrow=none;endArrow=none;startSize=5;endSize=5;strokeColor=#D8D8D8;spacingTop=0;spacingBottom=0;spacingLeft=0;spacingRight=0;verticalAlign=middle;html=1;labelBackgroundColor=#ffffff;rounded=0;fillOpacity=80;strokeOpacity=20;" parent="22vkG-h5v2N9dKBLQ-ZE-1" edge="1">
          <mxGeometry relative="1" as="geometry">
            <Array as="points" />
            <mxPoint x="224" y="1150" as="sourcePoint" />
            <mxPoint x="224" y="15" as="targetPoint" />
          </mxGeometry>
        </mxCell>
        <mxCell id="22vkG-h5v2N9dKBLQ-ZE-47" style="vsdxID=1385;edgeStyle=none;startArrow=none;endArrow=none;startSize=5;endSize=5;strokeColor=#D8D8D8;spacingTop=0;spacingBottom=0;spacingLeft=0;spacingRight=0;verticalAlign=middle;html=1;labelBackgroundColor=#ffffff;rounded=0;fillOpacity=80;strokeOpacity=20;" parent="22vkG-h5v2N9dKBLQ-ZE-1" edge="1">
          <mxGeometry relative="1" as="geometry">
            <Array as="points" />
            <mxPoint x="208" y="1150" as="sourcePoint" />
            <mxPoint x="208" y="15" as="targetPoint" />
          </mxGeometry>
        </mxCell>
        <mxCell id="22vkG-h5v2N9dKBLQ-ZE-48" style="vsdxID=1386;edgeStyle=none;startArrow=none;endArrow=none;startSize=5;endSize=5;strokeColor=#D8D8D8;spacingTop=0;spacingBottom=0;spacingLeft=0;spacingRight=0;verticalAlign=middle;html=1;labelBackgroundColor=#ffffff;rounded=0;fillOpacity=80;strokeOpacity=20;" parent="22vkG-h5v2N9dKBLQ-ZE-1" edge="1">
          <mxGeometry relative="1" as="geometry">
            <Array as="points" />
            <mxPoint x="192" y="1150" as="sourcePoint" />
            <mxPoint x="192" y="15" as="targetPoint" />
          </mxGeometry>
        </mxCell>
        <mxCell id="22vkG-h5v2N9dKBLQ-ZE-49" style="vsdxID=1387;edgeStyle=none;startArrow=none;endArrow=none;startSize=5;endSize=5;strokeColor=#7F7F7F;spacingTop=0;spacingBottom=0;spacingLeft=0;spacingRight=0;verticalAlign=middle;html=1;labelBackgroundColor=#ffffff;rounded=0;fillOpacity=80;strokeOpacity=20;" parent="22vkG-h5v2N9dKBLQ-ZE-1" edge="1">
          <mxGeometry relative="1" as="geometry">
            <Array as="points" />
            <mxPoint x="176" y="1150" as="sourcePoint" />
            <mxPoint x="176" y="15" as="targetPoint" />
          </mxGeometry>
        </mxCell>
        <mxCell id="22vkG-h5v2N9dKBLQ-ZE-50" style="vsdxID=1388;edgeStyle=none;startArrow=none;endArrow=none;startSize=5;endSize=5;strokeColor=#D8D8D8;spacingTop=0;spacingBottom=0;spacingLeft=0;spacingRight=0;verticalAlign=middle;html=1;labelBackgroundColor=#ffffff;rounded=0;fillOpacity=80;strokeOpacity=20;" parent="22vkG-h5v2N9dKBLQ-ZE-1" edge="1">
          <mxGeometry relative="1" as="geometry">
            <Array as="points" />
            <mxPoint x="240" y="1150" as="sourcePoint" />
            <mxPoint x="240" y="15" as="targetPoint" />
          </mxGeometry>
        </mxCell>
        <mxCell id="22vkG-h5v2N9dKBLQ-ZE-51" style="vsdxID=1389;edgeStyle=none;startArrow=none;endArrow=none;startSize=5;endSize=5;strokeColor=#D8D8D8;spacingTop=0;spacingBottom=0;spacingLeft=0;spacingRight=0;verticalAlign=middle;html=1;labelBackgroundColor=#ffffff;rounded=0;fillOpacity=80;strokeOpacity=20;" parent="22vkG-h5v2N9dKBLQ-ZE-1" edge="1">
          <mxGeometry relative="1" as="geometry">
            <Array as="points" />
            <mxPoint x="160" y="1150" as="sourcePoint" />
            <mxPoint x="160" y="15" as="targetPoint" />
          </mxGeometry>
        </mxCell>
        <mxCell id="22vkG-h5v2N9dKBLQ-ZE-52" style="vsdxID=1390;edgeStyle=none;startArrow=none;endArrow=none;startSize=5;endSize=5;strokeColor=#D8D8D8;spacingTop=0;spacingBottom=0;spacingLeft=0;spacingRight=0;verticalAlign=middle;html=1;labelBackgroundColor=#ffffff;rounded=0;fillOpacity=80;strokeOpacity=20;" parent="22vkG-h5v2N9dKBLQ-ZE-1" edge="1">
          <mxGeometry relative="1" as="geometry">
            <Array as="points" />
            <mxPoint x="144" y="1150" as="sourcePoint" />
            <mxPoint x="144" y="15" as="targetPoint" />
          </mxGeometry>
        </mxCell>
        <mxCell id="22vkG-h5v2N9dKBLQ-ZE-53" style="vsdxID=1391;edgeStyle=none;startArrow=none;endArrow=none;startSize=5;endSize=5;strokeColor=#D8D8D8;spacingTop=0;spacingBottom=0;spacingLeft=0;spacingRight=0;verticalAlign=middle;html=1;labelBackgroundColor=#ffffff;rounded=0;fillOpacity=80;strokeOpacity=20;" parent="22vkG-h5v2N9dKBLQ-ZE-1" edge="1">
          <mxGeometry relative="1" as="geometry">
            <Array as="points" />
            <mxPoint x="128" y="1150" as="sourcePoint" />
            <mxPoint x="128" y="15" as="targetPoint" />
          </mxGeometry>
        </mxCell>
        <mxCell id="22vkG-h5v2N9dKBLQ-ZE-54" style="vsdxID=1392;edgeStyle=none;startArrow=none;endArrow=none;startSize=5;endSize=5;strokeColor=#D8D8D8;spacingTop=0;spacingBottom=0;spacingLeft=0;spacingRight=0;verticalAlign=middle;html=1;labelBackgroundColor=#ffffff;rounded=0;fillOpacity=80;strokeOpacity=20;" parent="22vkG-h5v2N9dKBLQ-ZE-1" edge="1">
          <mxGeometry relative="1" as="geometry">
            <mxPoint x="-1" as="offset" />
            <Array as="points" />
            <mxPoint x="64" y="1150" as="sourcePoint" />
            <mxPoint x="64" y="15" as="targetPoint" />
          </mxGeometry>
        </mxCell>
        <mxCell id="22vkG-h5v2N9dKBLQ-ZE-55" style="vsdxID=1393;edgeStyle=none;startArrow=none;endArrow=none;startSize=5;endSize=5;strokeColor=#D8D8D8;spacingTop=0;spacingBottom=0;spacingLeft=0;spacingRight=0;verticalAlign=middle;html=1;labelBackgroundColor=#ffffff;rounded=0;fillOpacity=80;strokeOpacity=20;" parent="22vkG-h5v2N9dKBLQ-ZE-1" edge="1">
          <mxGeometry relative="1" as="geometry">
            <Array as="points" />
            <mxPoint x="80" y="1150" as="sourcePoint" />
            <mxPoint x="80" y="15" as="targetPoint" />
          </mxGeometry>
        </mxCell>
        <mxCell id="22vkG-h5v2N9dKBLQ-ZE-56" style="vsdxID=1394;edgeStyle=none;startArrow=none;endArrow=none;startSize=5;endSize=5;strokeColor=#D8D8D8;spacingTop=0;spacingBottom=0;spacingLeft=0;spacingRight=0;verticalAlign=middle;html=1;labelBackgroundColor=#ffffff;rounded=0;fillOpacity=80;strokeOpacity=20;" parent="22vkG-h5v2N9dKBLQ-ZE-1" edge="1">
          <mxGeometry relative="1" as="geometry">
            <mxPoint as="offset" />
            <Array as="points" />
            <mxPoint x="32" y="1150" as="sourcePoint" />
            <mxPoint x="32" y="15" as="targetPoint" />
          </mxGeometry>
        </mxCell>
        <mxCell id="22vkG-h5v2N9dKBLQ-ZE-57" style="vsdxID=1395;edgeStyle=none;startArrow=none;endArrow=none;startSize=5;endSize=5;strokeColor=#7F7F7F;spacingTop=0;spacingBottom=0;spacingLeft=0;spacingRight=0;verticalAlign=middle;html=1;labelBackgroundColor=#ffffff;rounded=0;fillOpacity=80;strokeOpacity=20;" parent="22vkG-h5v2N9dKBLQ-ZE-1" edge="1">
          <mxGeometry relative="1" as="geometry">
            <Array as="points" />
            <mxPoint x="96" y="1150" as="sourcePoint" />
            <mxPoint x="96" y="15" as="targetPoint" />
          </mxGeometry>
        </mxCell>
        <mxCell id="22vkG-h5v2N9dKBLQ-ZE-58" style="vsdxID=1396;edgeStyle=none;startArrow=none;endArrow=none;startSize=5;endSize=5;strokeColor=#D8D8D8;spacingTop=0;spacingBottom=0;spacingLeft=0;spacingRight=0;verticalAlign=middle;html=1;labelBackgroundColor=#ffffff;rounded=0;fillOpacity=80;strokeOpacity=20;" parent="22vkG-h5v2N9dKBLQ-ZE-1" edge="1">
          <mxGeometry relative="1" as="geometry">
            <Array as="points" />
            <mxPoint x="640" y="1150" as="sourcePoint" />
            <mxPoint x="640" y="15" as="targetPoint" />
          </mxGeometry>
        </mxCell>
        <mxCell id="22vkG-h5v2N9dKBLQ-ZE-59" style="vsdxID=1397;edgeStyle=none;startArrow=none;endArrow=none;startSize=5;endSize=5;strokeColor=#D8D8D8;spacingTop=0;spacingBottom=0;spacingLeft=0;spacingRight=0;verticalAlign=middle;html=1;labelBackgroundColor=#ffffff;rounded=0;fillOpacity=80;strokeOpacity=20;" parent="22vkG-h5v2N9dKBLQ-ZE-1" edge="1">
          <mxGeometry relative="1" as="geometry">
            <Array as="points" />
            <mxPoint x="624" y="1150" as="sourcePoint" />
            <mxPoint x="624" y="15" as="targetPoint" />
          </mxGeometry>
        </mxCell>
        <mxCell id="22vkG-h5v2N9dKBLQ-ZE-60" style="vsdxID=1398;edgeStyle=none;startArrow=none;endArrow=none;startSize=5;endSize=5;strokeColor=#D8D8D8;spacingTop=0;spacingBottom=0;spacingLeft=0;spacingRight=0;verticalAlign=middle;html=1;labelBackgroundColor=#ffffff;rounded=0;fillOpacity=80;strokeOpacity=20;" parent="22vkG-h5v2N9dKBLQ-ZE-1" edge="1">
          <mxGeometry relative="1" as="geometry">
            <Array as="points" />
            <mxPoint x="608" y="1150" as="sourcePoint" />
            <mxPoint x="608" y="15" as="targetPoint" />
          </mxGeometry>
        </mxCell>
        <mxCell id="22vkG-h5v2N9dKBLQ-ZE-61" style="vsdxID=1399;edgeStyle=none;startArrow=none;endArrow=none;startSize=5;endSize=5;strokeColor=#D8D8D8;spacingTop=0;spacingBottom=0;spacingLeft=0;spacingRight=0;verticalAlign=middle;html=1;labelBackgroundColor=#ffffff;rounded=0;fillOpacity=80;strokeOpacity=20;" parent="22vkG-h5v2N9dKBLQ-ZE-1" edge="1">
          <mxGeometry relative="1" as="geometry">
            <Array as="points" />
            <mxPoint x="112" y="1150" as="sourcePoint" />
            <mxPoint x="112" y="15" as="targetPoint" />
          </mxGeometry>
        </mxCell>
        <mxCell id="22vkG-h5v2N9dKBLQ-ZE-62" style="vsdxID=1403;edgeStyle=none;startArrow=none;endArrow=none;startSize=5;endSize=5;strokeColor=#D8D8D8;spacingTop=0;spacingBottom=0;spacingLeft=0;spacingRight=0;verticalAlign=middle;html=1;labelBackgroundColor=#ffffff;rounded=0;fillOpacity=80;strokeOpacity=20;" parent="22vkG-h5v2N9dKBLQ-ZE-1" edge="1">
          <mxGeometry relative="1" as="geometry">
            <Array as="points" />
            <mxPoint x="48" y="1150" as="sourcePoint" />
            <mxPoint x="48" y="15" as="targetPoint" />
          </mxGeometry>
        </mxCell>
        <mxCell id="22vkG-h5v2N9dKBLQ-ZE-63" style="vsdxID=1362;edgeStyle=none;startArrow=none;endArrow=none;startSize=5;endSize=5;strokeColor=#D8D8D8;spacingTop=0;spacingBottom=0;spacingLeft=0;spacingRight=0;verticalAlign=middle;html=1;labelBackgroundColor=#ffffff;rounded=0;fillOpacity=80;strokeOpacity=20;" parent="22vkG-h5v2N9dKBLQ-ZE-1" edge="1">
          <mxGeometry relative="1" as="geometry">
            <Array as="points" />
            <mxPoint x="784" y="1150" as="sourcePoint" />
            <mxPoint x="784" y="15" as="targetPoint" />
          </mxGeometry>
        </mxCell>
        <mxCell id="22vkG-h5v2N9dKBLQ-ZE-64" style="vsdxID=1363;edgeStyle=none;startArrow=none;endArrow=none;startSize=5;endSize=5;strokeColor=#D8D8D8;spacingTop=0;spacingBottom=0;spacingLeft=0;spacingRight=0;verticalAlign=middle;html=1;labelBackgroundColor=#ffffff;rounded=0;fillOpacity=80;strokeOpacity=20;" parent="22vkG-h5v2N9dKBLQ-ZE-1" edge="1">
          <mxGeometry relative="1" as="geometry">
            <Array as="points" />
            <mxPoint x="768" y="1150" as="sourcePoint" />
            <mxPoint x="768" y="15" as="targetPoint" />
          </mxGeometry>
        </mxCell>
        <mxCell id="22vkG-h5v2N9dKBLQ-ZE-65" style="vsdxID=1364;edgeStyle=none;startArrow=none;endArrow=none;startSize=5;endSize=5;strokeColor=#D8D8D8;spacingTop=0;spacingBottom=0;spacingLeft=0;spacingRight=0;verticalAlign=middle;html=1;labelBackgroundColor=#ffffff;rounded=0;fillOpacity=80;strokeOpacity=20;" parent="22vkG-h5v2N9dKBLQ-ZE-1" edge="1">
          <mxGeometry relative="1" as="geometry">
            <Array as="points" />
            <mxPoint x="752" y="1150" as="sourcePoint" />
            <mxPoint x="752" y="15" as="targetPoint" />
          </mxGeometry>
        </mxCell>
        <mxCell id="22vkG-h5v2N9dKBLQ-ZE-66" style="vsdxID=1365;edgeStyle=none;startArrow=none;endArrow=none;startSize=5;endSize=5;strokeColor=#7F7F7F;spacingTop=0;spacingBottom=0;spacingLeft=0;spacingRight=0;verticalAlign=middle;html=1;labelBackgroundColor=#ffffff;rounded=0;fillOpacity=80;strokeOpacity=20;" parent="22vkG-h5v2N9dKBLQ-ZE-1" edge="1">
          <mxGeometry relative="1" as="geometry">
            <Array as="points" />
            <mxPoint x="736" y="1150" as="sourcePoint" />
            <mxPoint x="736" y="15" as="targetPoint" />
          </mxGeometry>
        </mxCell>
        <mxCell id="22vkG-h5v2N9dKBLQ-ZE-67" style="vsdxID=1366;edgeStyle=none;startArrow=none;endArrow=none;startSize=5;endSize=5;strokeColor=#D8D8D8;spacingTop=0;spacingBottom=0;spacingLeft=0;spacingRight=0;verticalAlign=middle;html=1;labelBackgroundColor=#ffffff;rounded=0;fillOpacity=80;strokeOpacity=20;" parent="22vkG-h5v2N9dKBLQ-ZE-1" edge="1">
          <mxGeometry relative="1" as="geometry">
            <Array as="points" />
            <mxPoint x="704" y="1150" as="sourcePoint" />
            <mxPoint x="704" y="15" as="targetPoint" />
          </mxGeometry>
        </mxCell>
        <mxCell id="22vkG-h5v2N9dKBLQ-ZE-68" style="vsdxID=1367;edgeStyle=none;startArrow=none;endArrow=none;startSize=5;endSize=5;strokeColor=#D8D8D8;spacingTop=0;spacingBottom=0;spacingLeft=0;spacingRight=0;verticalAlign=middle;html=1;labelBackgroundColor=#ffffff;rounded=0;fillOpacity=80;strokeOpacity=20;" parent="22vkG-h5v2N9dKBLQ-ZE-1" edge="1">
          <mxGeometry relative="1" as="geometry">
            <Array as="points" />
            <mxPoint x="688" y="1150" as="sourcePoint" />
            <mxPoint x="688" y="15" as="targetPoint" />
          </mxGeometry>
        </mxCell>
        <mxCell id="22vkG-h5v2N9dKBLQ-ZE-69" style="vsdxID=1368;edgeStyle=none;startArrow=none;endArrow=none;startSize=5;endSize=5;strokeColor=#D8D8D8;spacingTop=0;spacingBottom=0;spacingLeft=0;spacingRight=0;verticalAlign=middle;html=1;labelBackgroundColor=#ffffff;rounded=0;fillOpacity=80;strokeOpacity=20;" parent="22vkG-h5v2N9dKBLQ-ZE-1" edge="1">
          <mxGeometry relative="1" as="geometry">
            <Array as="points" />
            <mxPoint x="672" y="1150" as="sourcePoint" />
            <mxPoint x="672" y="15" as="targetPoint" />
          </mxGeometry>
        </mxCell>
        <mxCell id="22vkG-h5v2N9dKBLQ-ZE-70" style="vsdxID=1369;edgeStyle=none;startArrow=none;endArrow=none;startSize=5;endSize=5;strokeColor=#7F7F7F;spacingTop=0;spacingBottom=0;spacingLeft=0;spacingRight=0;verticalAlign=middle;html=1;labelBackgroundColor=#ffffff;rounded=0;fillOpacity=80;strokeOpacity=20;" parent="22vkG-h5v2N9dKBLQ-ZE-1" edge="1">
          <mxGeometry relative="1" as="geometry">
            <Array as="points" />
            <mxPoint x="656" y="1150" as="sourcePoint" />
            <mxPoint x="656" y="15" as="targetPoint" />
          </mxGeometry>
        </mxCell>
        <mxCell id="22vkG-h5v2N9dKBLQ-ZE-71" style="vsdxID=1370;edgeStyle=none;startArrow=none;endArrow=none;startSize=5;endSize=5;strokeColor=#D8D8D8;spacingTop=0;spacingBottom=0;spacingLeft=0;spacingRight=0;verticalAlign=middle;html=1;labelBackgroundColor=#ffffff;rounded=0;fillOpacity=80;strokeOpacity=20;" parent="22vkG-h5v2N9dKBLQ-ZE-1" edge="1">
          <mxGeometry relative="1" as="geometry">
            <Array as="points" />
            <mxPoint x="720" y="1150" as="sourcePoint" />
            <mxPoint x="720" y="15" as="targetPoint" />
          </mxGeometry>
        </mxCell>
        <mxCell id="22vkG-h5v2N9dKBLQ-ZE-72" style="vsdxID=1398;edgeStyle=none;startArrow=none;endArrow=none;startSize=5;endSize=5;strokeColor=#D8D8D8;spacingTop=0;spacingBottom=0;spacingLeft=0;spacingRight=0;verticalAlign=middle;html=1;labelBackgroundColor=#ffffff;rounded=0;fillOpacity=80;strokeOpacity=20;" parent="22vkG-h5v2N9dKBLQ-ZE-1" edge="1">
          <mxGeometry relative="1" as="geometry">
            <Array as="points" />
            <mxPoint x="800" y="1150" as="sourcePoint" />
            <mxPoint x="800" y="15" as="targetPoint" />
          </mxGeometry>
        </mxCell>
        <mxCell id="22vkG-h5v2N9dKBLQ-ZE-73" style="vsdxID=1309;edgeStyle=none;startArrow=none;endArrow=none;startSize=5;endSize=5;strokeColor=#D8D8D8;spacingTop=0;spacingBottom=0;spacingLeft=0;spacingRight=0;verticalAlign=middle;html=1;labelBackgroundColor=#ffffff;rounded=0;fillOpacity=80;strokeOpacity=20;" parent="22vkG-h5v2N9dKBLQ-ZE-1" edge="1">
          <mxGeometry relative="1" as="geometry">
            <Array as="points" />
            <mxPoint x="818" y="63" as="sourcePoint" />
            <mxPoint x="16" y="63" as="targetPoint" />
          </mxGeometry>
        </mxCell>
        <mxCell id="22vkG-h5v2N9dKBLQ-ZE-74" style="vsdxID=1310;edgeStyle=none;startArrow=none;endArrow=none;startSize=5;endSize=5;strokeColor=#7F7F7F;spacingTop=0;spacingBottom=0;spacingLeft=0;spacingRight=0;verticalAlign=middle;html=1;labelBackgroundColor=#ffffff;rounded=0;fillOpacity=80;strokeOpacity=20;" parent="22vkG-h5v2N9dKBLQ-ZE-1" edge="1">
          <mxGeometry relative="1" as="geometry">
            <Array as="points" />
            <mxPoint x="818" y="95" as="sourcePoint" />
            <mxPoint x="16" y="95" as="targetPoint" />
          </mxGeometry>
        </mxCell>
        <mxCell id="22vkG-h5v2N9dKBLQ-ZE-75" style="vsdxID=1311;edgeStyle=none;startArrow=none;endArrow=none;startSize=5;endSize=5;strokeColor=#D8D8D8;spacingTop=0;spacingBottom=0;spacingLeft=0;spacingRight=0;verticalAlign=middle;html=1;labelBackgroundColor=#ffffff;rounded=0;fillOpacity=80;strokeOpacity=20;" parent="22vkG-h5v2N9dKBLQ-ZE-1" edge="1">
          <mxGeometry relative="1" as="geometry">
            <Array as="points" />
            <mxPoint x="818" y="111" as="sourcePoint" />
            <mxPoint x="16" y="111" as="targetPoint" />
          </mxGeometry>
        </mxCell>
        <mxCell id="22vkG-h5v2N9dKBLQ-ZE-76" style="vsdxID=1312;edgeStyle=none;startArrow=none;endArrow=none;startSize=5;endSize=5;strokeColor=#D8D8D8;spacingTop=0;spacingBottom=0;spacingLeft=0;spacingRight=0;verticalAlign=middle;html=1;labelBackgroundColor=#ffffff;rounded=0;fillOpacity=80;strokeOpacity=20;" parent="22vkG-h5v2N9dKBLQ-ZE-1" edge="1">
          <mxGeometry relative="1" as="geometry">
            <Array as="points" />
            <mxPoint x="818" y="127" as="sourcePoint" />
            <mxPoint x="16" y="127" as="targetPoint" />
          </mxGeometry>
        </mxCell>
        <mxCell id="22vkG-h5v2N9dKBLQ-ZE-77" style="vsdxID=1313;edgeStyle=none;startArrow=none;endArrow=none;startSize=5;endSize=5;strokeColor=#D8D8D8;spacingTop=0;spacingBottom=0;spacingLeft=0;spacingRight=0;verticalAlign=middle;html=1;labelBackgroundColor=#ffffff;rounded=0;fillOpacity=80;strokeOpacity=20;" parent="22vkG-h5v2N9dKBLQ-ZE-1" edge="1">
          <mxGeometry relative="1" as="geometry">
            <Array as="points" />
            <mxPoint x="818" y="143" as="sourcePoint" />
            <mxPoint x="16" y="143" as="targetPoint" />
          </mxGeometry>
        </mxCell>
        <mxCell id="22vkG-h5v2N9dKBLQ-ZE-78" style="vsdxID=1314;edgeStyle=none;startArrow=none;endArrow=none;startSize=5;endSize=5;strokeColor=#D8D8D8;spacingTop=0;spacingBottom=0;spacingLeft=0;spacingRight=0;verticalAlign=middle;html=1;labelBackgroundColor=#ffffff;rounded=0;fillOpacity=80;strokeOpacity=20;" parent="22vkG-h5v2N9dKBLQ-ZE-1" edge="1">
          <mxGeometry relative="1" as="geometry">
            <Array as="points" />
            <mxPoint x="818" y="79" as="sourcePoint" />
            <mxPoint x="16" y="79" as="targetPoint" />
          </mxGeometry>
        </mxCell>
        <mxCell id="22vkG-h5v2N9dKBLQ-ZE-79" style="vsdxID=1315;edgeStyle=none;startArrow=none;endArrow=none;startSize=5;endSize=5;strokeColor=#D8D8D8;spacingTop=0;spacingBottom=0;spacingLeft=0;spacingRight=0;verticalAlign=middle;html=1;labelBackgroundColor=#ffffff;rounded=0;fillOpacity=80;strokeOpacity=20;" parent="22vkG-h5v2N9dKBLQ-ZE-1" edge="1">
          <mxGeometry relative="1" as="geometry">
            <Array as="points" />
            <mxPoint x="818" y="159" as="sourcePoint" />
            <mxPoint x="16" y="159" as="targetPoint" />
          </mxGeometry>
        </mxCell>
        <mxCell id="22vkG-h5v2N9dKBLQ-ZE-80" style="vsdxID=1316;edgeStyle=none;startArrow=none;endArrow=none;startSize=5;endSize=5;strokeColor=#7F7F7F;spacingTop=0;spacingBottom=0;spacingLeft=0;spacingRight=0;verticalAlign=middle;html=1;labelBackgroundColor=#ffffff;rounded=0;fillOpacity=80;strokeOpacity=20;" parent="22vkG-h5v2N9dKBLQ-ZE-1" edge="1">
          <mxGeometry relative="1" as="geometry">
            <Array as="points" />
            <mxPoint x="818" y="175" as="sourcePoint" />
            <mxPoint x="16" y="175" as="targetPoint" />
          </mxGeometry>
        </mxCell>
        <mxCell id="22vkG-h5v2N9dKBLQ-ZE-81" style="vsdxID=1317;edgeStyle=none;startArrow=none;endArrow=none;startSize=5;endSize=5;strokeColor=#D8D8D8;spacingTop=0;spacingBottom=0;spacingLeft=0;spacingRight=0;verticalAlign=middle;html=1;labelBackgroundColor=#ffffff;rounded=0;fillOpacity=80;strokeOpacity=20;" parent="22vkG-h5v2N9dKBLQ-ZE-1" edge="1">
          <mxGeometry relative="1" as="geometry">
            <Array as="points" />
            <mxPoint x="818" y="191" as="sourcePoint" />
            <mxPoint x="16" y="191" as="targetPoint" />
          </mxGeometry>
        </mxCell>
        <mxCell id="22vkG-h5v2N9dKBLQ-ZE-82" style="vsdxID=1318;edgeStyle=none;startArrow=none;endArrow=none;startSize=5;endSize=5;strokeColor=#D8D8D8;spacingTop=0;spacingBottom=0;spacingLeft=0;spacingRight=0;verticalAlign=middle;html=1;labelBackgroundColor=#ffffff;rounded=0;fillOpacity=80;strokeOpacity=20;" parent="22vkG-h5v2N9dKBLQ-ZE-1" edge="1">
          <mxGeometry relative="1" as="geometry">
            <Array as="points" />
            <mxPoint x="818" y="207" as="sourcePoint" />
            <mxPoint x="16" y="207" as="targetPoint" />
          </mxGeometry>
        </mxCell>
        <mxCell id="22vkG-h5v2N9dKBLQ-ZE-83" style="vsdxID=1319;edgeStyle=none;startArrow=none;endArrow=none;startSize=5;endSize=5;strokeColor=#D8D8D8;spacingTop=0;spacingBottom=0;spacingLeft=0;spacingRight=0;verticalAlign=middle;html=1;labelBackgroundColor=#ffffff;rounded=0;fillOpacity=80;strokeOpacity=20;" parent="22vkG-h5v2N9dKBLQ-ZE-1" edge="1">
          <mxGeometry relative="1" as="geometry">
            <Array as="points" />
            <mxPoint x="818" y="239" as="sourcePoint" />
            <mxPoint x="16" y="239" as="targetPoint" />
          </mxGeometry>
        </mxCell>
        <mxCell id="22vkG-h5v2N9dKBLQ-ZE-84" style="vsdxID=1320;edgeStyle=none;startArrow=none;endArrow=none;startSize=5;endSize=5;strokeColor=#7F7F7F;spacingTop=0;spacingBottom=0;spacingLeft=0;spacingRight=0;verticalAlign=middle;html=1;labelBackgroundColor=#ffffff;rounded=0;fillOpacity=80;strokeOpacity=20;" parent="22vkG-h5v2N9dKBLQ-ZE-1" edge="1">
          <mxGeometry relative="1" as="geometry">
            <Array as="points" />
            <mxPoint x="818" y="256" as="sourcePoint" />
            <mxPoint x="16" y="255" as="targetPoint" />
          </mxGeometry>
        </mxCell>
        <mxCell id="22vkG-h5v2N9dKBLQ-ZE-85" style="vsdxID=1321;edgeStyle=none;startArrow=none;endArrow=none;startSize=5;endSize=5;strokeColor=#D8D8D8;spacingTop=0;spacingBottom=0;spacingLeft=0;spacingRight=0;verticalAlign=middle;html=1;labelBackgroundColor=#ffffff;rounded=0;fillOpacity=80;strokeOpacity=20;" parent="22vkG-h5v2N9dKBLQ-ZE-1" edge="1">
          <mxGeometry relative="1" as="geometry">
            <Array as="points" />
            <mxPoint x="818" y="271" as="sourcePoint" />
            <mxPoint x="16" y="271" as="targetPoint" />
          </mxGeometry>
        </mxCell>
        <mxCell id="22vkG-h5v2N9dKBLQ-ZE-86" style="vsdxID=1322;edgeStyle=none;startArrow=none;endArrow=none;startSize=5;endSize=5;strokeColor=#D8D8D8;spacingTop=0;spacingBottom=0;spacingLeft=0;spacingRight=0;verticalAlign=middle;html=1;labelBackgroundColor=#ffffff;rounded=0;fillOpacity=80;strokeOpacity=20;" parent="22vkG-h5v2N9dKBLQ-ZE-1" edge="1">
          <mxGeometry relative="1" as="geometry">
            <Array as="points" />
            <mxPoint x="818" y="287" as="sourcePoint" />
            <mxPoint x="16" y="287" as="targetPoint" />
          </mxGeometry>
        </mxCell>
        <mxCell id="22vkG-h5v2N9dKBLQ-ZE-87" style="vsdxID=1323;edgeStyle=none;startArrow=none;endArrow=none;startSize=5;endSize=5;strokeColor=#D8D8D8;spacingTop=0;spacingBottom=0;spacingLeft=0;spacingRight=0;verticalAlign=middle;html=1;labelBackgroundColor=#ffffff;rounded=0;fillOpacity=80;strokeOpacity=20;" parent="22vkG-h5v2N9dKBLQ-ZE-1" edge="1">
          <mxGeometry relative="1" as="geometry">
            <Array as="points" />
            <mxPoint x="818" y="223" as="sourcePoint" />
            <mxPoint x="16" y="223" as="targetPoint" />
          </mxGeometry>
        </mxCell>
        <mxCell id="22vkG-h5v2N9dKBLQ-ZE-88" style="vsdxID=1324;edgeStyle=none;startArrow=none;endArrow=none;startSize=5;endSize=5;strokeColor=#D8D8D8;spacingTop=0;spacingBottom=0;spacingLeft=0;spacingRight=0;verticalAlign=middle;html=1;labelBackgroundColor=#ffffff;rounded=0;fillOpacity=80;strokeOpacity=20;" parent="22vkG-h5v2N9dKBLQ-ZE-1" edge="1">
          <mxGeometry relative="1" as="geometry">
            <Array as="points" />
            <mxPoint x="818" y="303" as="sourcePoint" />
            <mxPoint x="16" y="303" as="targetPoint" />
          </mxGeometry>
        </mxCell>
        <mxCell id="22vkG-h5v2N9dKBLQ-ZE-89" style="vsdxID=1325;edgeStyle=none;startArrow=none;endArrow=none;startSize=5;endSize=5;strokeColor=#D8D8D8;spacingTop=0;spacingBottom=0;spacingLeft=0;spacingRight=0;verticalAlign=middle;html=1;labelBackgroundColor=#ffffff;rounded=0;fillOpacity=80;strokeOpacity=20;" parent="22vkG-h5v2N9dKBLQ-ZE-1" edge="1">
          <mxGeometry relative="1" as="geometry">
            <Array as="points" />
            <mxPoint x="818" y="319" as="sourcePoint" />
            <mxPoint x="16" y="319" as="targetPoint" />
          </mxGeometry>
        </mxCell>
        <mxCell id="22vkG-h5v2N9dKBLQ-ZE-90" style="vsdxID=1326;edgeStyle=none;startArrow=none;endArrow=none;startSize=5;endSize=5;strokeColor=#7F7F7F;spacingTop=0;spacingBottom=0;spacingLeft=0;spacingRight=0;verticalAlign=middle;html=1;labelBackgroundColor=#ffffff;rounded=0;fillOpacity=80;strokeOpacity=20;" parent="22vkG-h5v2N9dKBLQ-ZE-1" edge="1">
          <mxGeometry relative="1" as="geometry">
            <Array as="points" />
            <mxPoint x="818" y="335" as="sourcePoint" />
            <mxPoint x="16" y="335" as="targetPoint" />
          </mxGeometry>
        </mxCell>
        <mxCell id="22vkG-h5v2N9dKBLQ-ZE-91" style="vsdxID=1327;edgeStyle=none;startArrow=none;endArrow=none;startSize=5;endSize=5;strokeColor=#D8D8D8;spacingTop=0;spacingBottom=0;spacingLeft=0;spacingRight=0;verticalAlign=middle;html=1;labelBackgroundColor=#ffffff;rounded=0;fillOpacity=80;strokeOpacity=20;" parent="22vkG-h5v2N9dKBLQ-ZE-1" edge="1">
          <mxGeometry relative="1" as="geometry">
            <Array as="points" />
            <mxPoint x="818" y="351" as="sourcePoint" />
            <mxPoint x="16" y="351" as="targetPoint" />
          </mxGeometry>
        </mxCell>
        <mxCell id="22vkG-h5v2N9dKBLQ-ZE-92" style="vsdxID=1328;edgeStyle=none;startArrow=none;endArrow=none;startSize=5;endSize=5;strokeColor=#D8D8D8;spacingTop=0;spacingBottom=0;spacingLeft=0;spacingRight=0;verticalAlign=middle;html=1;labelBackgroundColor=#ffffff;rounded=0;fillOpacity=80;strokeOpacity=20;" parent="22vkG-h5v2N9dKBLQ-ZE-1" edge="1">
          <mxGeometry relative="1" as="geometry">
            <Array as="points" />
            <mxPoint x="818" y="383" as="sourcePoint" />
            <mxPoint x="16" y="383" as="targetPoint" />
          </mxGeometry>
        </mxCell>
        <mxCell id="22vkG-h5v2N9dKBLQ-ZE-93" style="vsdxID=1329;edgeStyle=none;startArrow=none;endArrow=none;startSize=5;endSize=5;strokeColor=#D8D8D8;spacingTop=0;spacingBottom=0;spacingLeft=0;spacingRight=0;verticalAlign=middle;html=1;labelBackgroundColor=#ffffff;rounded=0;fillOpacity=80;strokeOpacity=20;" parent="22vkG-h5v2N9dKBLQ-ZE-1" edge="1">
          <mxGeometry relative="1" as="geometry">
            <Array as="points" />
            <mxPoint x="818" y="399" as="sourcePoint" />
            <mxPoint x="16" y="399" as="targetPoint" />
          </mxGeometry>
        </mxCell>
        <mxCell id="22vkG-h5v2N9dKBLQ-ZE-94" style="vsdxID=1330;edgeStyle=none;startArrow=none;endArrow=none;startSize=5;endSize=5;strokeColor=#7F7F7F;spacingTop=0;spacingBottom=0;spacingLeft=0;spacingRight=0;verticalAlign=middle;html=1;labelBackgroundColor=#ffffff;rounded=0;fillOpacity=80;strokeOpacity=20;" parent="22vkG-h5v2N9dKBLQ-ZE-1" edge="1">
          <mxGeometry relative="1" as="geometry">
            <Array as="points" />
            <mxPoint x="818" y="415" as="sourcePoint" />
            <mxPoint x="16" y="415" as="targetPoint" />
          </mxGeometry>
        </mxCell>
        <mxCell id="22vkG-h5v2N9dKBLQ-ZE-95" style="vsdxID=1331;edgeStyle=none;startArrow=none;endArrow=none;startSize=5;endSize=5;strokeColor=#D8D8D8;spacingTop=0;spacingBottom=0;spacingLeft=0;spacingRight=0;verticalAlign=middle;html=1;labelBackgroundColor=#ffffff;rounded=0;fillOpacity=80;strokeOpacity=20;" parent="22vkG-h5v2N9dKBLQ-ZE-1" edge="1">
          <mxGeometry relative="1" as="geometry">
            <Array as="points" />
            <mxPoint x="818" y="431" as="sourcePoint" />
            <mxPoint x="16" y="431" as="targetPoint" />
          </mxGeometry>
        </mxCell>
        <mxCell id="22vkG-h5v2N9dKBLQ-ZE-96" style="vsdxID=1332;edgeStyle=none;startArrow=none;endArrow=none;startSize=5;endSize=5;strokeColor=#D8D8D8;spacingTop=0;spacingBottom=0;spacingLeft=0;spacingRight=0;verticalAlign=middle;html=1;labelBackgroundColor=#ffffff;rounded=0;fillOpacity=80;strokeOpacity=20;" parent="22vkG-h5v2N9dKBLQ-ZE-1" edge="1">
          <mxGeometry relative="1" as="geometry">
            <Array as="points" />
            <mxPoint x="818" y="367" as="sourcePoint" />
            <mxPoint x="16" y="367" as="targetPoint" />
          </mxGeometry>
        </mxCell>
        <mxCell id="22vkG-h5v2N9dKBLQ-ZE-97" style="vsdxID=1333;edgeStyle=none;startArrow=none;endArrow=none;startSize=5;endSize=5;strokeColor=#D8D8D8;spacingTop=0;spacingBottom=0;spacingLeft=0;spacingRight=0;verticalAlign=middle;html=1;labelBackgroundColor=#ffffff;rounded=0;fillOpacity=80;strokeOpacity=20;" parent="22vkG-h5v2N9dKBLQ-ZE-1" edge="1">
          <mxGeometry relative="1" as="geometry">
            <Array as="points" />
            <mxPoint x="818" y="447" as="sourcePoint" />
            <mxPoint x="16" y="447" as="targetPoint" />
          </mxGeometry>
        </mxCell>
        <mxCell id="22vkG-h5v2N9dKBLQ-ZE-98" style="vsdxID=1334;edgeStyle=none;startArrow=none;endArrow=none;startSize=5;endSize=5;strokeColor=#D8D8D8;spacingTop=0;spacingBottom=0;spacingLeft=0;spacingRight=0;verticalAlign=middle;html=1;labelBackgroundColor=#ffffff;rounded=0;fillOpacity=80;strokeOpacity=20;" parent="22vkG-h5v2N9dKBLQ-ZE-1" edge="1">
          <mxGeometry relative="1" as="geometry">
            <Array as="points" />
            <mxPoint x="818" y="463" as="sourcePoint" />
            <mxPoint x="16" y="463" as="targetPoint" />
          </mxGeometry>
        </mxCell>
        <mxCell id="22vkG-h5v2N9dKBLQ-ZE-99" style="vsdxID=1335;edgeStyle=none;startArrow=none;endArrow=none;startSize=5;endSize=5;strokeColor=#D8D8D8;spacingTop=0;spacingBottom=0;spacingLeft=0;spacingRight=0;verticalAlign=middle;html=1;labelBackgroundColor=#ffffff;rounded=0;fillOpacity=80;strokeOpacity=20;" parent="22vkG-h5v2N9dKBLQ-ZE-1" edge="1">
          <mxGeometry relative="1" as="geometry">
            <Array as="points" />
            <mxPoint x="818" y="479" as="sourcePoint" />
            <mxPoint x="16" y="479" as="targetPoint" />
          </mxGeometry>
        </mxCell>
        <mxCell id="22vkG-h5v2N9dKBLQ-ZE-100" style="vsdxID=1336;edgeStyle=none;startArrow=none;endArrow=none;startSize=5;endSize=5;strokeColor=#7F7F7F;spacingTop=0;spacingBottom=0;spacingLeft=0;spacingRight=0;verticalAlign=middle;html=1;labelBackgroundColor=#ffffff;rounded=0;fillOpacity=80;strokeOpacity=20;" parent="22vkG-h5v2N9dKBLQ-ZE-1" edge="1">
          <mxGeometry relative="1" as="geometry">
            <Array as="points" />
            <mxPoint x="818" y="495" as="sourcePoint" />
            <mxPoint x="16" y="495" as="targetPoint" />
          </mxGeometry>
        </mxCell>
        <mxCell id="22vkG-h5v2N9dKBLQ-ZE-101" style="vsdxID=1337;edgeStyle=none;startArrow=none;endArrow=none;startSize=5;endSize=5;strokeColor=#D8D8D8;spacingTop=0;spacingBottom=0;spacingLeft=0;spacingRight=0;verticalAlign=middle;html=1;labelBackgroundColor=#ffffff;rounded=0;fillOpacity=80;strokeOpacity=20;" parent="22vkG-h5v2N9dKBLQ-ZE-1" edge="1">
          <mxGeometry relative="1" as="geometry">
            <Array as="points" />
            <mxPoint x="818" y="527" as="sourcePoint" />
            <mxPoint x="16" y="527" as="targetPoint" />
          </mxGeometry>
        </mxCell>
        <mxCell id="22vkG-h5v2N9dKBLQ-ZE-102" style="vsdxID=1338;edgeStyle=none;startArrow=none;endArrow=none;startSize=5;endSize=5;strokeColor=#D8D8D8;spacingTop=0;spacingBottom=0;spacingLeft=0;spacingRight=0;verticalAlign=middle;html=1;labelBackgroundColor=#ffffff;rounded=0;fillOpacity=80;strokeOpacity=20;" parent="22vkG-h5v2N9dKBLQ-ZE-1" edge="1">
          <mxGeometry relative="1" as="geometry">
            <Array as="points" />
            <mxPoint x="818" y="543" as="sourcePoint" />
            <mxPoint x="16" y="543" as="targetPoint" />
          </mxGeometry>
        </mxCell>
        <mxCell id="22vkG-h5v2N9dKBLQ-ZE-103" style="vsdxID=1339;edgeStyle=none;startArrow=none;endArrow=none;startSize=5;endSize=5;strokeColor=#D8D8D8;spacingTop=0;spacingBottom=0;spacingLeft=0;spacingRight=0;verticalAlign=middle;html=1;labelBackgroundColor=#ffffff;rounded=0;fillOpacity=80;strokeOpacity=20;" parent="22vkG-h5v2N9dKBLQ-ZE-1" edge="1">
          <mxGeometry relative="1" as="geometry">
            <Array as="points" />
            <mxPoint x="818" y="559" as="sourcePoint" />
            <mxPoint x="16" y="559" as="targetPoint" />
          </mxGeometry>
        </mxCell>
        <mxCell id="22vkG-h5v2N9dKBLQ-ZE-104" style="vsdxID=1340;edgeStyle=none;startArrow=none;endArrow=none;startSize=5;endSize=5;strokeColor=#7F7F7F;spacingTop=0;spacingBottom=0;spacingLeft=0;spacingRight=0;verticalAlign=middle;html=1;labelBackgroundColor=#ffffff;rounded=0;fillOpacity=80;strokeOpacity=20;" parent="22vkG-h5v2N9dKBLQ-ZE-1" edge="1">
          <mxGeometry relative="1" as="geometry">
            <Array as="points" />
            <mxPoint x="818" y="575" as="sourcePoint" />
            <mxPoint x="16" y="575" as="targetPoint" />
          </mxGeometry>
        </mxCell>
        <mxCell id="22vkG-h5v2N9dKBLQ-ZE-105" style="vsdxID=1341;edgeStyle=none;startArrow=none;endArrow=none;startSize=5;endSize=5;strokeColor=#D8D8D8;spacingTop=0;spacingBottom=0;spacingLeft=0;spacingRight=0;verticalAlign=middle;html=1;labelBackgroundColor=#ffffff;rounded=0;fillOpacity=80;strokeOpacity=20;" parent="22vkG-h5v2N9dKBLQ-ZE-1" edge="1">
          <mxGeometry relative="1" as="geometry">
            <Array as="points" />
            <mxPoint x="818" y="511" as="sourcePoint" />
            <mxPoint x="16" y="511" as="targetPoint" />
          </mxGeometry>
        </mxCell>
        <mxCell id="22vkG-h5v2N9dKBLQ-ZE-106" style="vsdxID=1342;edgeStyle=none;startArrow=none;endArrow=none;startSize=5;endSize=5;strokeColor=#D8D8D8;spacingTop=0;spacingBottom=0;spacingLeft=0;spacingRight=0;verticalAlign=middle;html=1;labelBackgroundColor=#ffffff;rounded=0;fillOpacity=80;strokeOpacity=20;" parent="22vkG-h5v2N9dKBLQ-ZE-1" edge="1">
          <mxGeometry relative="1" as="geometry">
            <Array as="points" />
            <mxPoint x="818" y="591" as="sourcePoint" />
            <mxPoint x="16" y="591" as="targetPoint" />
          </mxGeometry>
        </mxCell>
        <mxCell id="22vkG-h5v2N9dKBLQ-ZE-107" style="vsdxID=1343;edgeStyle=none;startArrow=none;endArrow=none;startSize=5;endSize=5;strokeColor=#D8D8D8;spacingTop=0;spacingBottom=0;spacingLeft=0;spacingRight=0;verticalAlign=middle;html=1;labelBackgroundColor=#ffffff;rounded=0;fillOpacity=80;strokeOpacity=20;" parent="22vkG-h5v2N9dKBLQ-ZE-1" edge="1">
          <mxGeometry relative="1" as="geometry">
            <Array as="points" />
            <mxPoint x="818" y="607" as="sourcePoint" />
            <mxPoint x="16" y="607" as="targetPoint" />
          </mxGeometry>
        </mxCell>
        <mxCell id="22vkG-h5v2N9dKBLQ-ZE-108" style="vsdxID=1344;edgeStyle=none;startArrow=none;endArrow=none;startSize=5;endSize=5;strokeColor=#D8D8D8;spacingTop=0;spacingBottom=0;spacingLeft=0;spacingRight=0;verticalAlign=middle;html=1;labelBackgroundColor=#ffffff;rounded=0;fillOpacity=80;strokeOpacity=20;" parent="22vkG-h5v2N9dKBLQ-ZE-1" edge="1">
          <mxGeometry relative="1" as="geometry">
            <Array as="points" />
            <mxPoint x="818" y="623" as="sourcePoint" />
            <mxPoint x="16" y="623" as="targetPoint" />
          </mxGeometry>
        </mxCell>
        <mxCell id="22vkG-h5v2N9dKBLQ-ZE-109" style="vsdxID=1345;edgeStyle=none;startArrow=none;endArrow=none;startSize=5;endSize=5;strokeColor=#D8D8D8;spacingTop=0;spacingBottom=0;spacingLeft=0;spacingRight=0;verticalAlign=middle;html=1;labelBackgroundColor=#ffffff;rounded=0;fillOpacity=80;strokeOpacity=20;" parent="22vkG-h5v2N9dKBLQ-ZE-1" edge="1">
          <mxGeometry relative="1" as="geometry">
            <Array as="points" />
            <mxPoint x="818" y="639" as="sourcePoint" />
            <mxPoint x="16" y="639" as="targetPoint" />
          </mxGeometry>
        </mxCell>
        <mxCell id="22vkG-h5v2N9dKBLQ-ZE-110" style="vsdxID=1346;edgeStyle=none;startArrow=none;endArrow=none;startSize=5;endSize=5;strokeColor=#D8D8D8;spacingTop=0;spacingBottom=0;spacingLeft=0;spacingRight=0;verticalAlign=middle;html=1;labelBackgroundColor=#ffffff;rounded=0;fillOpacity=80;strokeOpacity=20;" parent="22vkG-h5v2N9dKBLQ-ZE-1" edge="1">
          <mxGeometry relative="1" as="geometry">
            <Array as="points" />
            <mxPoint x="818" y="671" as="sourcePoint" />
            <mxPoint x="16" y="671" as="targetPoint" />
          </mxGeometry>
        </mxCell>
        <mxCell id="22vkG-h5v2N9dKBLQ-ZE-111" style="vsdxID=1347;edgeStyle=none;startArrow=none;endArrow=none;startSize=5;endSize=5;strokeColor=#D8D8D8;spacingTop=0;spacingBottom=0;spacingLeft=0;spacingRight=0;verticalAlign=middle;html=1;labelBackgroundColor=#ffffff;rounded=0;fillOpacity=80;strokeOpacity=20;" parent="22vkG-h5v2N9dKBLQ-ZE-1" edge="1">
          <mxGeometry relative="1" as="geometry">
            <Array as="points" />
            <mxPoint x="818" y="687" as="sourcePoint" />
            <mxPoint x="16" y="687" as="targetPoint" />
          </mxGeometry>
        </mxCell>
        <mxCell id="22vkG-h5v2N9dKBLQ-ZE-112" style="vsdxID=1348;edgeStyle=none;startArrow=none;endArrow=none;startSize=5;endSize=5;strokeColor=#D8D8D8;spacingTop=0;spacingBottom=0;spacingLeft=0;spacingRight=0;verticalAlign=middle;html=1;labelBackgroundColor=#ffffff;rounded=0;fillOpacity=80;strokeOpacity=20;" parent="22vkG-h5v2N9dKBLQ-ZE-1" edge="1">
          <mxGeometry relative="1" as="geometry">
            <Array as="points" />
            <mxPoint x="818" y="703" as="sourcePoint" />
            <mxPoint x="16" y="703" as="targetPoint" />
          </mxGeometry>
        </mxCell>
        <mxCell id="22vkG-h5v2N9dKBLQ-ZE-113" style="vsdxID=1349;edgeStyle=none;startArrow=none;endArrow=none;startSize=5;endSize=5;strokeColor=#D8D8D8;spacingTop=0;spacingBottom=0;spacingLeft=0;spacingRight=0;verticalAlign=middle;html=1;labelBackgroundColor=#ffffff;rounded=0;fillOpacity=80;strokeOpacity=20;" parent="22vkG-h5v2N9dKBLQ-ZE-1" edge="1">
          <mxGeometry relative="1" as="geometry">
            <Array as="points" />
            <mxPoint x="818" y="719" as="sourcePoint" />
            <mxPoint x="16" y="719" as="targetPoint" />
          </mxGeometry>
        </mxCell>
        <mxCell id="22vkG-h5v2N9dKBLQ-ZE-114" style="vsdxID=1350;edgeStyle=none;startArrow=none;endArrow=none;startSize=5;endSize=5;strokeColor=#7F7F7F;spacingTop=0;spacingBottom=0;spacingLeft=0;spacingRight=0;verticalAlign=middle;html=1;labelBackgroundColor=#ffffff;rounded=0;fillOpacity=80;strokeOpacity=20;" parent="22vkG-h5v2N9dKBLQ-ZE-1" edge="1">
          <mxGeometry relative="1" as="geometry">
            <Array as="points" />
            <mxPoint x="818" y="655" as="sourcePoint" />
            <mxPoint x="16" y="655" as="targetPoint" />
          </mxGeometry>
        </mxCell>
        <mxCell id="22vkG-h5v2N9dKBLQ-ZE-115" style="vsdxID=1351;edgeStyle=none;startArrow=none;endArrow=none;startSize=5;endSize=5;strokeColor=#7F7F7F;spacingTop=0;spacingBottom=0;spacingLeft=0;spacingRight=0;verticalAlign=middle;html=1;labelBackgroundColor=#ffffff;rounded=0;fillOpacity=80;strokeOpacity=20;" parent="22vkG-h5v2N9dKBLQ-ZE-1" edge="1">
          <mxGeometry relative="1" as="geometry">
            <Array as="points" />
            <mxPoint x="818" y="735" as="sourcePoint" />
            <mxPoint x="16" y="735" as="targetPoint" />
          </mxGeometry>
        </mxCell>
        <mxCell id="22vkG-h5v2N9dKBLQ-ZE-116" style="vsdxID=1352;edgeStyle=none;startArrow=none;endArrow=none;startSize=5;endSize=5;strokeColor=#D8D8D8;spacingTop=0;spacingBottom=0;spacingLeft=0;spacingRight=0;verticalAlign=middle;html=1;labelBackgroundColor=#ffffff;rounded=0;fillOpacity=80;strokeOpacity=20;" parent="22vkG-h5v2N9dKBLQ-ZE-1" edge="1">
          <mxGeometry relative="1" as="geometry">
            <Array as="points" />
            <mxPoint x="818" y="751" as="sourcePoint" />
            <mxPoint x="16" y="751" as="targetPoint" />
          </mxGeometry>
        </mxCell>
        <mxCell id="22vkG-h5v2N9dKBLQ-ZE-117" style="vsdxID=1353;edgeStyle=none;startArrow=none;endArrow=none;startSize=5;endSize=5;strokeColor=#D8D8D8;spacingTop=0;spacingBottom=0;spacingLeft=0;spacingRight=0;verticalAlign=middle;html=1;labelBackgroundColor=#ffffff;rounded=0;fillOpacity=80;strokeOpacity=20;" parent="22vkG-h5v2N9dKBLQ-ZE-1" edge="1">
          <mxGeometry relative="1" as="geometry">
            <Array as="points" />
            <mxPoint x="818" y="767" as="sourcePoint" />
            <mxPoint x="16" y="767" as="targetPoint" />
          </mxGeometry>
        </mxCell>
        <mxCell id="22vkG-h5v2N9dKBLQ-ZE-118" style="vsdxID=1354;edgeStyle=none;startArrow=none;endArrow=none;startSize=5;endSize=5;strokeColor=#D8D8D8;spacingTop=0;spacingBottom=0;spacingLeft=0;spacingRight=0;verticalAlign=middle;html=1;labelBackgroundColor=#ffffff;rounded=0;fillOpacity=80;strokeOpacity=20;" parent="22vkG-h5v2N9dKBLQ-ZE-1" edge="1">
          <mxGeometry relative="1" as="geometry">
            <Array as="points" />
            <mxPoint x="818" y="783" as="sourcePoint" />
            <mxPoint x="16" y="783" as="targetPoint" />
          </mxGeometry>
        </mxCell>
        <mxCell id="22vkG-h5v2N9dKBLQ-ZE-119" style="vsdxID=1359;edgeStyle=none;startArrow=none;endArrow=none;startSize=5;endSize=5;strokeColor=#D8D8D8;spacingTop=0;spacingBottom=0;spacingLeft=0;spacingRight=0;verticalAlign=middle;html=1;labelBackgroundColor=#ffffff;rounded=0;fillOpacity=80;strokeOpacity=20;" parent="22vkG-h5v2N9dKBLQ-ZE-1" edge="1">
          <mxGeometry relative="1" as="geometry">
            <Array as="points" />
            <mxPoint x="818" y="799" as="sourcePoint" />
            <mxPoint x="16" y="799" as="targetPoint" />
          </mxGeometry>
        </mxCell>
        <mxCell id="22vkG-h5v2N9dKBLQ-ZE-120" style="vsdxID=1401;edgeStyle=none;startArrow=none;endArrow=none;startSize=5;endSize=5;strokeColor=#D8D8D8;spacingTop=0;spacingBottom=0;spacingLeft=0;spacingRight=0;verticalAlign=middle;html=1;labelBackgroundColor=#ffffff;rounded=0;fillOpacity=80;strokeOpacity=20;" parent="22vkG-h5v2N9dKBLQ-ZE-1" edge="1">
          <mxGeometry relative="1" as="geometry">
            <Array as="points" />
            <mxPoint x="818" y="47" as="sourcePoint" />
            <mxPoint x="16" y="47" as="targetPoint" />
          </mxGeometry>
        </mxCell>
        <mxCell id="22vkG-h5v2N9dKBLQ-ZE-121" style="vsdxID=1400;edgeStyle=none;startArrow=none;endArrow=none;startSize=5;endSize=5;strokeColor=#D8D8D8;spacingTop=0;spacingBottom=0;spacingLeft=0;spacingRight=0;verticalAlign=middle;html=1;labelBackgroundColor=#ffffff;rounded=0;fillOpacity=80;strokeOpacity=20;" parent="22vkG-h5v2N9dKBLQ-ZE-1" edge="1">
          <mxGeometry relative="1" as="geometry">
            <Array as="points" />
            <mxPoint x="818" y="31" as="sourcePoint" />
            <mxPoint x="16" y="31" as="targetPoint" />
          </mxGeometry>
        </mxCell>
        <mxCell id="22vkG-h5v2N9dKBLQ-ZE-122" style="vsdxID=1362;edgeStyle=none;startArrow=none;endArrow=none;startSize=5;endSize=5;strokeColor=#7F7F7F;spacingTop=0;spacingBottom=0;spacingLeft=0;spacingRight=0;verticalAlign=middle;html=1;labelBackgroundColor=#ffffff;rounded=0;fillOpacity=80;strokeOpacity=20;" parent="22vkG-h5v2N9dKBLQ-ZE-1" edge="1">
          <mxGeometry relative="1" as="geometry">
            <Array as="points" />
            <mxPoint x="16" y="1150" as="sourcePoint" />
            <mxPoint x="16" y="15" as="targetPoint" />
          </mxGeometry>
        </mxCell>
        <mxCell id="22vkG-h5v2N9dKBLQ-ZE-123" style="vsdxID=1310;edgeStyle=none;startArrow=none;endArrow=none;startSize=5;endSize=5;strokeColor=#7F7F7F;spacingTop=0;spacingBottom=0;spacingLeft=0;spacingRight=0;verticalAlign=middle;html=1;labelBackgroundColor=#ffffff;rounded=0;fillOpacity=80;strokeOpacity=20;" parent="22vkG-h5v2N9dKBLQ-ZE-1" edge="1">
          <mxGeometry relative="1" as="geometry">
            <Array as="points" />
            <mxPoint x="818" y="15" as="sourcePoint" />
            <mxPoint x="16" y="15" as="targetPoint" />
          </mxGeometry>
        </mxCell>
        <mxCell id="B1rrrl92oq_uFDzy55uY-2" style="vsdxID=1335;edgeStyle=none;startArrow=none;endArrow=none;startSize=5;endSize=5;strokeColor=#7F7F7F;spacingTop=0;spacingBottom=0;spacingLeft=0;spacingRight=0;verticalAlign=middle;html=1;labelBackgroundColor=#ffffff;rounded=0;fillOpacity=80;strokeOpacity=20;" edge="1" parent="22vkG-h5v2N9dKBLQ-ZE-1">
          <mxGeometry relative="1" as="geometry">
            <Array as="points" />
            <mxPoint x="818" y="815" as="sourcePoint" />
            <mxPoint x="16" y="815" as="targetPoint" />
          </mxGeometry>
        </mxCell>
        <mxCell id="B1rrrl92oq_uFDzy55uY-3" style="vsdxID=1336;edgeStyle=none;startArrow=none;endArrow=none;startSize=5;endSize=5;strokeColor=#D8D8D8;spacingTop=0;spacingBottom=0;spacingLeft=0;spacingRight=0;verticalAlign=middle;html=1;labelBackgroundColor=#ffffff;rounded=0;fillOpacity=80;strokeOpacity=20;" edge="1" parent="22vkG-h5v2N9dKBLQ-ZE-1">
          <mxGeometry relative="1" as="geometry">
            <Array as="points" />
            <mxPoint x="818" y="831" as="sourcePoint" />
            <mxPoint x="16" y="831" as="targetPoint" />
          </mxGeometry>
        </mxCell>
        <mxCell id="B1rrrl92oq_uFDzy55uY-4" style="vsdxID=1337;edgeStyle=none;startArrow=none;endArrow=none;startSize=5;endSize=5;strokeColor=#D8D8D8;spacingTop=0;spacingBottom=0;spacingLeft=0;spacingRight=0;verticalAlign=middle;html=1;labelBackgroundColor=#ffffff;rounded=0;fillOpacity=80;strokeOpacity=20;" edge="1" parent="22vkG-h5v2N9dKBLQ-ZE-1">
          <mxGeometry relative="1" as="geometry">
            <Array as="points" />
            <mxPoint x="818" y="863" as="sourcePoint" />
            <mxPoint x="16" y="863" as="targetPoint" />
          </mxGeometry>
        </mxCell>
        <mxCell id="B1rrrl92oq_uFDzy55uY-5" style="vsdxID=1338;edgeStyle=none;startArrow=none;endArrow=none;startSize=5;endSize=5;strokeColor=#D8D8D8;spacingTop=0;spacingBottom=0;spacingLeft=0;spacingRight=0;verticalAlign=middle;html=1;labelBackgroundColor=#ffffff;rounded=0;fillOpacity=80;strokeOpacity=20;" edge="1" parent="22vkG-h5v2N9dKBLQ-ZE-1">
          <mxGeometry relative="1" as="geometry">
            <Array as="points" />
            <mxPoint x="818" y="879" as="sourcePoint" />
            <mxPoint x="16" y="879" as="targetPoint" />
          </mxGeometry>
        </mxCell>
        <mxCell id="B1rrrl92oq_uFDzy55uY-6" style="vsdxID=1339;edgeStyle=none;startArrow=none;endArrow=none;startSize=5;endSize=5;strokeColor=#7F7F7F;spacingTop=0;spacingBottom=0;spacingLeft=0;spacingRight=0;verticalAlign=middle;html=1;labelBackgroundColor=#ffffff;rounded=0;fillOpacity=80;strokeOpacity=20;" edge="1" parent="22vkG-h5v2N9dKBLQ-ZE-1">
          <mxGeometry relative="1" as="geometry">
            <Array as="points" />
            <mxPoint x="818" y="895" as="sourcePoint" />
            <mxPoint x="16" y="895" as="targetPoint" />
          </mxGeometry>
        </mxCell>
        <mxCell id="B1rrrl92oq_uFDzy55uY-7" style="vsdxID=1340;edgeStyle=none;startArrow=none;endArrow=none;startSize=5;endSize=5;strokeColor=#D8D8D8;spacingTop=0;spacingBottom=0;spacingLeft=0;spacingRight=0;verticalAlign=middle;html=1;labelBackgroundColor=#ffffff;rounded=0;fillOpacity=80;strokeOpacity=20;" edge="1" parent="22vkG-h5v2N9dKBLQ-ZE-1">
          <mxGeometry relative="1" as="geometry">
            <Array as="points" />
            <mxPoint x="818" y="911" as="sourcePoint" />
            <mxPoint x="16" y="911" as="targetPoint" />
          </mxGeometry>
        </mxCell>
        <mxCell id="B1rrrl92oq_uFDzy55uY-8" style="vsdxID=1341;edgeStyle=none;startArrow=none;endArrow=none;startSize=5;endSize=5;strokeColor=#D8D8D8;spacingTop=0;spacingBottom=0;spacingLeft=0;spacingRight=0;verticalAlign=middle;html=1;labelBackgroundColor=#ffffff;rounded=0;fillOpacity=80;strokeOpacity=20;" edge="1" parent="22vkG-h5v2N9dKBLQ-ZE-1">
          <mxGeometry relative="1" as="geometry">
            <Array as="points" />
            <mxPoint x="818" y="847" as="sourcePoint" />
            <mxPoint x="16" y="847" as="targetPoint" />
          </mxGeometry>
        </mxCell>
        <mxCell id="B1rrrl92oq_uFDzy55uY-9" style="vsdxID=1342;edgeStyle=none;startArrow=none;endArrow=none;startSize=5;endSize=5;strokeColor=#D8D8D8;spacingTop=0;spacingBottom=0;spacingLeft=0;spacingRight=0;verticalAlign=middle;html=1;labelBackgroundColor=#ffffff;rounded=0;fillOpacity=80;strokeOpacity=20;" edge="1" parent="22vkG-h5v2N9dKBLQ-ZE-1">
          <mxGeometry relative="1" as="geometry">
            <Array as="points" />
            <mxPoint x="818" y="927" as="sourcePoint" />
            <mxPoint x="16" y="927" as="targetPoint" />
          </mxGeometry>
        </mxCell>
        <mxCell id="B1rrrl92oq_uFDzy55uY-10" style="vsdxID=1343;edgeStyle=none;startArrow=none;endArrow=none;startSize=5;endSize=5;strokeColor=#D8D8D8;spacingTop=0;spacingBottom=0;spacingLeft=0;spacingRight=0;verticalAlign=middle;html=1;labelBackgroundColor=#ffffff;rounded=0;fillOpacity=80;strokeOpacity=20;" edge="1" parent="22vkG-h5v2N9dKBLQ-ZE-1">
          <mxGeometry relative="1" as="geometry">
            <Array as="points" />
            <mxPoint x="818" y="943" as="sourcePoint" />
            <mxPoint x="16" y="943" as="targetPoint" />
          </mxGeometry>
        </mxCell>
        <mxCell id="B1rrrl92oq_uFDzy55uY-11" style="vsdxID=1344;edgeStyle=none;startArrow=none;endArrow=none;startSize=5;endSize=5;strokeColor=#D8D8D8;spacingTop=0;spacingBottom=0;spacingLeft=0;spacingRight=0;verticalAlign=middle;html=1;labelBackgroundColor=#ffffff;rounded=0;fillOpacity=80;strokeOpacity=20;" edge="1" parent="22vkG-h5v2N9dKBLQ-ZE-1">
          <mxGeometry relative="1" as="geometry">
            <Array as="points" />
            <mxPoint x="818" y="959" as="sourcePoint" />
            <mxPoint x="16" y="959" as="targetPoint" />
          </mxGeometry>
        </mxCell>
        <mxCell id="B1rrrl92oq_uFDzy55uY-12" style="vsdxID=1345;edgeStyle=none;startArrow=none;endArrow=none;startSize=5;endSize=5;strokeColor=#7F7F7F;spacingTop=0;spacingBottom=0;spacingLeft=0;spacingRight=0;verticalAlign=middle;html=1;labelBackgroundColor=#ffffff;rounded=0;fillOpacity=80;strokeOpacity=20;" edge="1" parent="22vkG-h5v2N9dKBLQ-ZE-1">
          <mxGeometry relative="1" as="geometry">
            <Array as="points" />
            <mxPoint x="818" y="975" as="sourcePoint" />
            <mxPoint x="16" y="975" as="targetPoint" />
          </mxGeometry>
        </mxCell>
        <mxCell id="B1rrrl92oq_uFDzy55uY-13" style="vsdxID=1346;edgeStyle=none;startArrow=none;endArrow=none;startSize=5;endSize=5;strokeColor=#D8D8D8;spacingTop=0;spacingBottom=0;spacingLeft=0;spacingRight=0;verticalAlign=middle;html=1;labelBackgroundColor=#ffffff;rounded=0;fillOpacity=80;strokeOpacity=20;" edge="1" parent="22vkG-h5v2N9dKBLQ-ZE-1">
          <mxGeometry relative="1" as="geometry">
            <Array as="points" />
            <mxPoint x="818" y="1007" as="sourcePoint" />
            <mxPoint x="16" y="1007" as="targetPoint" />
          </mxGeometry>
        </mxCell>
        <mxCell id="B1rrrl92oq_uFDzy55uY-14" style="vsdxID=1347;edgeStyle=none;startArrow=none;endArrow=none;startSize=5;endSize=5;strokeColor=#D8D8D8;spacingTop=0;spacingBottom=0;spacingLeft=0;spacingRight=0;verticalAlign=middle;html=1;labelBackgroundColor=#ffffff;rounded=0;fillOpacity=80;strokeOpacity=20;" edge="1" parent="22vkG-h5v2N9dKBLQ-ZE-1">
          <mxGeometry relative="1" as="geometry">
            <Array as="points" />
            <mxPoint x="818" y="1023" as="sourcePoint" />
            <mxPoint x="16" y="1023" as="targetPoint" />
          </mxGeometry>
        </mxCell>
        <mxCell id="B1rrrl92oq_uFDzy55uY-15" style="vsdxID=1348;edgeStyle=none;startArrow=none;endArrow=none;startSize=5;endSize=5;strokeColor=#D8D8D8;spacingTop=0;spacingBottom=0;spacingLeft=0;spacingRight=0;verticalAlign=middle;html=1;labelBackgroundColor=#ffffff;rounded=0;fillOpacity=80;strokeOpacity=20;" edge="1" parent="22vkG-h5v2N9dKBLQ-ZE-1">
          <mxGeometry relative="1" as="geometry">
            <Array as="points" />
            <mxPoint x="818" y="1039" as="sourcePoint" />
            <mxPoint x="16" y="1039" as="targetPoint" />
          </mxGeometry>
        </mxCell>
        <mxCell id="B1rrrl92oq_uFDzy55uY-16" style="vsdxID=1349;edgeStyle=none;startArrow=none;endArrow=none;startSize=5;endSize=5;strokeColor=#7F7F7F;spacingTop=0;spacingBottom=0;spacingLeft=0;spacingRight=0;verticalAlign=middle;html=1;labelBackgroundColor=#ffffff;rounded=0;fillOpacity=80;strokeOpacity=20;" edge="1" parent="22vkG-h5v2N9dKBLQ-ZE-1">
          <mxGeometry relative="1" as="geometry">
            <Array as="points" />
            <mxPoint x="818" y="1055" as="sourcePoint" />
            <mxPoint x="16" y="1055" as="targetPoint" />
          </mxGeometry>
        </mxCell>
        <mxCell id="B1rrrl92oq_uFDzy55uY-17" style="vsdxID=1350;edgeStyle=none;startArrow=none;endArrow=none;startSize=5;endSize=5;strokeColor=#D8D8D8;spacingTop=0;spacingBottom=0;spacingLeft=0;spacingRight=0;verticalAlign=middle;html=1;labelBackgroundColor=#ffffff;rounded=0;fillOpacity=80;strokeOpacity=20;" edge="1" parent="22vkG-h5v2N9dKBLQ-ZE-1">
          <mxGeometry relative="1" as="geometry">
            <Array as="points" />
            <mxPoint x="818" y="991" as="sourcePoint" />
            <mxPoint x="16" y="991" as="targetPoint" />
          </mxGeometry>
        </mxCell>
        <mxCell id="B1rrrl92oq_uFDzy55uY-18" style="vsdxID=1351;edgeStyle=none;startArrow=none;endArrow=none;startSize=5;endSize=5;strokeColor=#D8D8D8;spacingTop=0;spacingBottom=0;spacingLeft=0;spacingRight=0;verticalAlign=middle;html=1;labelBackgroundColor=#ffffff;rounded=0;fillOpacity=80;strokeOpacity=20;" edge="1" parent="22vkG-h5v2N9dKBLQ-ZE-1">
          <mxGeometry relative="1" as="geometry">
            <Array as="points" />
            <mxPoint x="818" y="1071" as="sourcePoint" />
            <mxPoint x="16" y="1071" as="targetPoint" />
          </mxGeometry>
        </mxCell>
        <mxCell id="B1rrrl92oq_uFDzy55uY-19" style="vsdxID=1352;edgeStyle=none;startArrow=none;endArrow=none;startSize=5;endSize=5;strokeColor=#D8D8D8;spacingTop=0;spacingBottom=0;spacingLeft=0;spacingRight=0;verticalAlign=middle;html=1;labelBackgroundColor=#ffffff;rounded=0;fillOpacity=80;strokeOpacity=20;" edge="1" parent="22vkG-h5v2N9dKBLQ-ZE-1">
          <mxGeometry relative="1" as="geometry">
            <Array as="points" />
            <mxPoint x="818" y="1087" as="sourcePoint" />
            <mxPoint x="16" y="1087" as="targetPoint" />
          </mxGeometry>
        </mxCell>
        <mxCell id="B1rrrl92oq_uFDzy55uY-20" style="vsdxID=1353;edgeStyle=none;startArrow=none;endArrow=none;startSize=5;endSize=5;strokeColor=#D8D8D8;spacingTop=0;spacingBottom=0;spacingLeft=0;spacingRight=0;verticalAlign=middle;html=1;labelBackgroundColor=#ffffff;rounded=0;fillOpacity=80;strokeOpacity=20;" edge="1" parent="22vkG-h5v2N9dKBLQ-ZE-1">
          <mxGeometry relative="1" as="geometry">
            <Array as="points" />
            <mxPoint x="818" y="1103" as="sourcePoint" />
            <mxPoint x="16" y="1103" as="targetPoint" />
          </mxGeometry>
        </mxCell>
        <mxCell id="B1rrrl92oq_uFDzy55uY-21" style="vsdxID=1354;edgeStyle=none;startArrow=none;endArrow=none;startSize=5;endSize=5;strokeColor=#D8D8D8;spacingTop=0;spacingBottom=0;spacingLeft=0;spacingRight=0;verticalAlign=middle;html=1;labelBackgroundColor=#ffffff;rounded=0;fillOpacity=80;strokeOpacity=20;" edge="1" parent="22vkG-h5v2N9dKBLQ-ZE-1">
          <mxGeometry relative="1" as="geometry">
            <Array as="points" />
            <mxPoint x="818" y="1119" as="sourcePoint" />
            <mxPoint x="16" y="1119" as="targetPoint" />
          </mxGeometry>
        </mxCell>
        <mxCell id="B1rrrl92oq_uFDzy55uY-22" style="vsdxID=1359;edgeStyle=none;startArrow=none;endArrow=none;startSize=5;endSize=5;strokeColor=#7F7F7F;spacingTop=0;spacingBottom=0;spacingLeft=0;spacingRight=0;verticalAlign=middle;html=1;labelBackgroundColor=#ffffff;rounded=0;fillOpacity=80;strokeOpacity=20;" edge="1" parent="22vkG-h5v2N9dKBLQ-ZE-1">
          <mxGeometry relative="1" as="geometry">
            <Array as="points" />
            <mxPoint x="818" y="1134" as="sourcePoint" />
            <mxPoint x="16" y="1134" as="targetPoint" />
          </mxGeometry>
        </mxCell>
        <mxCell id="22vkG-h5v2N9dKBLQ-ZE-124" value="Connection" style="locked=1;" parent="22vkG-h5v2N9dKBLQ-ZE-0" />
        <mxCell id="22vkG-h5v2N9dKBLQ-ZE-131" value="Dimension" style="" parent="22vkG-h5v2N9dKBLQ-ZE-0" />
        <object label="%Dimension%: %Value%%UoM%" Dimension="H" placeholders="1" UoM="mm" Value="96" id="22vkG-h5v2N9dKBLQ-ZE-132">
          <mxCell style="shape=dimension;direction=north;whiteSpace=wrap;html=1;align=right;points=[];verticalAlign=middle;labelBackgroundColor=#ffffff;fillColor=none;movableLabel=1;fontColor=#a6a6a6;strokeColor=#a6a6a6;" parent="22vkG-h5v2N9dKBLQ-ZE-131" vertex="1">
            <mxGeometry x="66" y="112" width="54" height="768" as="geometry">
              <mxPoint x="-8" as="offset" />
            </mxGeometry>
          </mxCell>
        </object>
        <object label="%Dimension%: %Value%%UoM%" placeholders="1" Dimension="W" UoM="mm" Value="32" id="22vkG-h5v2N9dKBLQ-ZE-133">
          <mxCell style="shape=dimension;whiteSpace=wrap;html=1;align=center;points=[];verticalAlign=bottom;spacingBottom=-5;labelBackgroundColor=#ffffff;fillColor=none;movableLabel=1;fontColor=#a6a6a6;strokeColor=#a6a6a6;strokeWidth=1;" parent="22vkG-h5v2N9dKBLQ-ZE-131" vertex="1">
            <mxGeometry x="256" y="20" width="256" height="38" as="geometry">
              <mxPoint x="1" y="-14" as="offset" />
            </mxGeometry>
          </mxCell>
        </object>
        <mxCell id="22vkG-h5v2N9dKBLQ-ZE-134" value="Option1" style="locked=1;" parent="22vkG-h5v2N9dKBLQ-ZE-0" />
        <mxCell id="22vkG-h5v2N9dKBLQ-ZE-135" value="Label" style="locked=1;" parent="22vkG-h5v2N9dKBLQ-ZE-0" />
        <object label="%LabelLines%&amp;nbsp; &amp;nbsp; &amp;nbsp; &amp;nbsp; &amp;nbsp; &amp;nbsp;%LabelIndex%" placeholders="1" LabelLines="1" LabelIndex="A" id="jyOudCda0Ud9WsIjt9Yr-0">
          <mxCell style="rounded=0;whiteSpace=wrap;html=1;fillColor=none;strokeColor=#FF0000;fontColor=#FF0000;fontSize=10;align=left;noLabel=0;rotation=0;" parent="22vkG-h5v2N9dKBLQ-ZE-135" vertex="1">
            <mxGeometry x="343.86" y="487.07" width="80" height="16" as="geometry" />
          </mxCell>
        </object>
        <mxCell id="22vkG-h5v2N9dKBLQ-ZE-136" value="Origo" style="locked=1;" parent="22vkG-h5v2N9dKBLQ-ZE-0" />
        <object label="origo" id="22vkG-h5v2N9dKBLQ-ZE-137">
          <mxCell style="vsdxID=1407;fillColor=none;gradientColor=none;shape=stencil(rVFbDsIgEDwNnyQU4glqvcfGblsilmZBS28vZGMsxg9j/JvZmX1kR5g2TLCg0CpE8hdcbR8nYY5CaztPSDZmJEwnTDt4wpH8be6ZL1CcBV39vUxI3KdKh1YbswPTEzuBzlmiVGmKau9zUKM+jlJJQrJBko8QrZ+rrQ5oRJnXyMHBWElhRVx25ebnw/5zVvPFWRm83jxY5zilvf4eSy5xpKZ7AA==);strokeColor=#ff0000;strokeWidth=1;points=[[0.5,0.5,0,0,0]];labelBackgroundColor=none;rounded=0;html=1;whiteSpace=wrap;aspect=fixed;noLabel=1;snapToPoint=1;" parent="22vkG-h5v2N9dKBLQ-ZE-136" vertex="1">
            <mxGeometry x="379.92" y="491.14" width="7.874" height="7.87" as="geometry" />
          </mxCell>
        </object>
        <mxCell id="22vkG-h5v2N9dKBLQ-ZE-138" value="Symbol" style="locked=1;" parent="22vkG-h5v2N9dKBLQ-ZE-0" />
        <mxCell id="B1rrrl92oq_uFDzy55uY-0" value="" style="rounded=0;whiteSpace=wrap;html=1;fillColor=none;rotation=90;" vertex="1" parent="22vkG-h5v2N9dKBLQ-ZE-138">
          <mxGeometry x="63.94" y="367.07" width="639.84" height="256" as="geometry" />
        </mxCell>
        <mxCell id="B1rrrl92oq_uFDzy55uY-26" value="" style="verticalLabelPosition=bottom;verticalAlign=top;html=1;shape=mxgraph.basic.half_circle;fillColor=none;rotation=-180;" vertex="1" parent="22vkG-h5v2N9dKBLQ-ZE-138">
          <mxGeometry x="256" y="112" width="256" height="63.3857" as="geometry" />
        </mxCell>
        <mxCell id="B1rrrl92oq_uFDzy55uY-28" value="" style="verticalLabelPosition=bottom;verticalAlign=top;html=1;shape=mxgraph.basic.half_circle;fillColor=none;rotation=0;" vertex="1" parent="22vkG-h5v2N9dKBLQ-ZE-138">
          <mxGeometry x="256" y="814.959" width="256" height="64.9605" as="geometry" />
        </mxCell>
      </root>
    </mxGraphModel>
  </diagram>
</mxfile>
